<?xml version="1.0" encoding="UTF-8"?>
<svg id="Layer_1" data-name="Layer 1" xmlns="http://www.w3.org/2000/svg" viewBox="0 0 4203.47 2045.58">
  <defs>
    <style>
      .cls-1, .cls-2, .cls-3 {
        fill: #fff;
      }

      .cls-4 {
        fill: #f0f1f0;
      }

      .cls-2 {
        font-family: HelveticaNeue-CondensedBold, 'Helvetica Neue';
        font-size: 400px;
        font-weight: 700;
      }

      .cls-3 {
        stroke: #fff;
        stroke-miterlimit: 10;
        stroke-width: 30px;
      }

      .cls-5 {
        fill: #006165;
      }

      .cls-6 {
        fill: #f6a800;
      }
    </style>
  </defs>
  <g>
    <rect class="cls-5" width="2000" height="2000" rx="376.88" ry="376.88"/>
    <g>
      <path class="cls-1" d="M1305.5,1349.09c-22.82.02-45.65-.43-68.46.25-8.28.25-10.74-1.89-9.91-11,7.52-82.1,27.92-159.41,71.62-228.18,13.78-21.68,27.28-43.59,41.89-64.61,26.29-37.83,66.7-46.31,99.28-21.75,32.05,24.16,39.08,72.86,14.76,106.75-19.98,27.84-39.93,55.54-53.96,87.7-16.74,38.39-21.56,78.45-15.82,120.13,1.12,8.12-.12,11.15-8.6,10.91-23.59-.66-47.21-.23-70.82-.21Z"/>
      <path class="cls-1" d="M1439.72,1002.28c-31.59-11.27-62.36-12.55-90.41,10.42-14.57,11.93-25.42,27.65-35.17,44.24-1.68,2.86-3.28,5.86-5.39,8.32-1.92,2.23-2.89,7.12-6.84,5.25-2.98-1.41-1.4-5.33-1.46-8.07-.52-20.99-2.01-41.87-4.39-62.72-7.54-65.97-18.79-130.98-42.26-192.81-7.82-20.61-16.4-40.88-20.79-62.78-6.53-32.54,7.76-68.7,33.81-85.99,29.21-19.38,65.54-18.51,88.94,3.06,20.39,18.8,26.94,44,25.56,72.03-.61,12.28-1.98,24.51-3.12,36.75-7.98,85.28,12.78,161.54,61.38,229.09.46.64.58,1.56.86,2.35l-.69.87Z"/>
      <path class="cls-1" d="M1394.36,765.23c6.95-45.28,4.93-87.07-30.25-119.02,41.8-19.94,82.71-39.5,123.66-58.96,29.35-13.95,58.07-29.23,86.55-45.18,48.71-27.28,99.02-2.25,110.04,54.38,8.79,45.16-27.28,86.22-60.96,85.68-54.31-.87-102.06,18.62-148.19,45.93-25.39,15.03-51.62,27.59-80.86,37.17Z"/>
      <path class="cls-1" d="M1307.68,1489.8c-50.37-.01-100.74-.2-151.1.18-7.94.06-10.83-1.59-10.54-10.96.71-22.95.09-45.95.3-68.92.17-18.39,8.53-27.23,25.36-27.36,9.44-.07,18.89-.12,28.33.07,6.76.13,13.13-2.17,16.51-7.97,4.26-7.3,9.63-8.27,16.66-8.24,49.58.18,99.16.1,148.74-.05,6.1-.02,11.19.4,15.13,6.83,4.39,7.14,11.43,9.7,19.5,9.45,10.62-.33,21.25-.31,31.87-.03,13.37.36,21.98,9.49,22.15,24.03.3,24.25-.27,48.52.32,72.76.21,8.54-2.22,10.46-9.78,10.4-51.15-.35-102.31-.18-153.47-.19Z"/>
      <path class="cls-1" d="M1701.37,623.2c5.21,7.6,9.87,13.73,13.84,20.34,13.88,23.1,27.63,46.3,41.2,69.61,9.04,15.53,6.73,25.33-7.57,35.02-14.94,10.13-29.7,20.57-44.76,30.48-16.67,10.98-25.62,8.84-36.7-8.35-13.24-20.54-26.28-41.21-39.54-61.73-3.66-5.67-4.84-8.49,3.6-10.34,37.25-8.15,58.94-34.15,69.92-75.04Z"/>
      <path class="cls-1" d="M1806.88,802.46c-.28,9.82-4.02,16.93-11.14,21.86-16.51,11.43-32.91,23.07-49.76,33.89-14.51,9.32-26.93,5.71-36.24-9.77-7.51-12.48-13.34-25.83-16.31-40.51-.71-3.51-1.33-5.57,3.06-7.64,25.65-12.05,48.36-29.5,71.12-46.79,1.99-1.51,3.16-5.48,6.56-2.25,14.91,14.17,26.13,31.01,32.71,51.21Z"/>
      <path class="cls-1" d="M1823.19,798.7c15.83,9.06,31.81,16.22,44.75,28.98,10.5,10.35,14.59,23.58,13.16,39.57-1.41,15.76-1.08,31.59.19,47.37.72,9-1.15,16.99-7.26,22.36-4.33,3.81-9.85,5.56-15.43,2.48-5.42-2.99-7.8-8.12-7.8-14.61-.02-17.86-.6-35.75.15-53.57.51-12.12-3.64-20.39-13.01-26.27-2.71-1.7-5.03-4.24-7.87-5.55-11.39-5.25-17.02-12.23-9.18-25.81,2.08-3.6,1.49-9.01,2.31-14.96Z"/>
      <path class="cls-1" d="M1703.67,869.87c5.11,2.8,9.3,6.67,13.87,7.3,13.82,1.9,12.17,10.39,9.6,21.02-4.67,19.33-1.82,26.14,13.69,37.17,12.42,8.83,24.97,17.47,37.25,26.52,9.82,7.23,12.97,17.09,8.42,24.53-5.8,9.47-14.94,10.57-25.63,2.84-12.68-9.18-24.85-19.25-37.96-27.64-22.88-14.64-28.39-36.91-25.22-63.17,1.14-9.49,3.88-18.76,5.98-28.57Z"/>
    </g>
    <g>
      <rect class="cls-4" x="232" y="163.08" width="136.11" height="136.11"/>
      <rect class="cls-4" x="381.72" y="163.08" width="136.11" height="136.11"/>
      <rect class="cls-4" x="531.44" y="163.08" width="136.11" height="136.11"/>
      <rect class="cls-4" x="830.89" y="163.08" width="136.11" height="136.11"/>
      <rect class="cls-4" x="681.17" y="163.08" width="136.11" height="136.11"/>
      <rect class="cls-4" x="232" y="312.81" width="136.11" height="136.11"/>
      <rect class="cls-4" x="381.72" y="312.81" width="136.11" height="136.11"/>
      <rect class="cls-4" x="531.44" y="312.81" width="136.11" height="136.11"/>
      <rect class="cls-4" x="830.89" y="312.81" width="136.11" height="136.11"/>
      <rect class="cls-4" x="681.17" y="312.81" width="136.11" height="136.11"/>
      <rect class="cls-4" x="232" y="462.53" width="136.11" height="136.11"/>
      <rect class="cls-4" x="381.72" y="462.53" width="136.11" height="136.11"/>
      <rect class="cls-4" x="531.44" y="462.53" width="136.11" height="136.11"/>
      <rect class="cls-6" x="830.89" y="462.53" width="136.11" height="136.11"/>
      <rect class="cls-6" x="681.17" y="462.53" width="136.11" height="136.11"/>
      <rect class="cls-4" x="232" y="612.25" width="136.11" height="136.11"/>
      <rect class="cls-4" x="381.72" y="612.25" width="136.11" height="136.11"/>
      <rect class="cls-6" x="531.44" y="612.25" width="136.11" height="136.11"/>
      <rect class="cls-4" x="830.89" y="612.25" width="136.11" height="136.11"/>
      <rect class="cls-6" x="681.17" y="612.25" width="136.11" height="136.11"/>
      <rect class="cls-4" x="232" y="761.97" width="136.11" height="136.11"/>
      <rect class="cls-6" x="381.72" y="761.97" width="136.11" height="136.11"/>
      <rect class="cls-6" x="531.44" y="761.97" width="136.11" height="136.11"/>
      <rect class="cls-4" x="830.89" y="761.97" width="136.11" height="136.11"/>
      <rect class="cls-4" x="681.17" y="761.97" width="136.11" height="136.11"/>
    </g>
    <g>
      <circle class="cls-1" cx="446.78" cy="1546.17" r="72.78"/>
      <circle class="cls-1" cx="621.44" cy="1764.5" r="72.78"/>
      <circle class="cls-1" cx="621.44" cy="1546.17" r="72.78"/>
      <circle class="cls-1" cx="534.11" cy="1327.83" r="72.78"/>
      <line class="cls-3" x1="679.67" y1="1109.5" x2="534.11" y2="1327.83"/>
      <line class="cls-3" x1="679.67" y1="1109.5" x2="825.22" y2="1327.83"/>
      <line class="cls-3" x1="534.11" y1="1327.83" x2="446.78" y2="1546.17"/>
      <line class="cls-3" x1="621.44" y1="1546.17" x2="534.11" y2="1327.83"/>
      <line class="cls-3" x1="621.44" y1="1546.17" x2="621.44" y2="1764.5"/>
      <circle class="cls-6" cx="825.22" cy="1327.83" r="72.78"/>
      <circle class="cls-6" cx="679.67" cy="1109.5" r="72.78"/>
    </g>
  </g>
  <text class="cls-2"><tspan x="2248.24" y="1009.18">Lab Course</tspan><tspan x="2248.24" y="1460.18">Planning for</tspan><tspan x="2248.24" y="1911.18">Robotics</tspan></text>
</svg>